<svg xmlns="http://www.w3.org/2000/svg" data-name="Layer 1" width="600.8" height="615.1">
  <path fill="#f2f2f2" d="m377.6 583-18.1 31.5h36.3L377.6 583l-18.1 31.5h36.3L377.6 583zm-46.5-424.7v86.4a8.9 8.9 0 0 1-8.8 8.8H256l.6-.8a186 186 0 0 0 73.8-93.4Z"/>
  <path d="M398.3 72.2H22.7A22.7 22.7 0 0 0 0 95v225.6a22.7 22.7 0 0 0 22.7 22.7h375.6a22.7 22.7 0 0 0 22.7-22.7V95a22.7 22.7 0 0 0-22.7-22.7ZM419 320.5a20.7 20.7 0 0 1-20.7 20.7H22.7A20.7 20.7 0 0 1 2 320.5V230q0-8 .8-15.7a155.6 155.6 0 0 1 154.9-140h240.6A20.7 20.7 0 0 1 419 95Z" fill="#e6e6e6"/>
  <path d="M278.4 177.4H83a6 6 0 1 0 0 12h195.4a6 6 0 0 0 0-12Zm-134.8-33.8H83a6 6 0 1 0 0 12h60.6a6 6 0 0 0 0-12Z" fill="#e6e6e6"/>
  <path d="M83 177.4h30a112.9 112.9 0 0 1-12.3 12H83a6 6 0 1 1 0-12Zm0-33.8h50.5a111 111 0 0 1-5.5 12H83a6 6 0 1 1 0-12Zm55.4-68.2A155.8 155.8 0 0 0 2.8 214.2a65 65 0 0 1-2.8-.6V95a22.7 22.7 0 0 1 22.7-22.7h114.9l.8 3.2Z" fill="#228be6"/>
  <circle cx="137.2" cy="74.1" r="18.9" fill="#fff"/>
  <path d="M137.2 94a19.9 19.9 0 1 1 20-19.9 20 20 0 0 1-20 20Zm0-37.8a17.9 17.9 0 1 0 18 18 18 18 0 0 0-18-18Z" fill="#3f3d56"/>
  <path d="M134.7 84a2.1 2.1 0 0 1-1.7-.9l-5.2-6.9a2.1 2.1 0 1 1 3.4-2.5l3.4 4.5 8.6-13a2.1 2.1 0 0 1 3.5 2.4L136.4 83a2.1 2.1 0 0 1-1.7 1Z" fill="#228be6"/>
  <circle cx="286.2" cy="207.1" r="18.9" fill="#fff"/>
  <path d="M286.2 227a19.9 19.9 0 1 1 20-19.9 20 20 0 0 1-20 20Zm0-37.8a17.9 17.9 0 1 0 18 18 18 18 0 0 0-18-18Z" fill="#e6e6e6"/>
  <path d="M283.7 217a2.1 2.1 0 0 1-1.7-.9l-5.2-6.9a2.1 2.1 0 1 1 3.4-2.5l3.4 4.5 8.6-13a2.1 2.1 0 0 1 3.5 2.4L285.4 216a2.1 2.1 0 0 1-1.7 1ZM235.4 9.3A48.5 48.5 0 0 0 206.6 0a47.8 47.8 0 0 0-39.3 21.5c-.7 1.1.9 2.5 1.6 1.3a46.3 46.3 0 0 1 21.7-17.6 45.7 45.7 0 0 1 43.4 5.7c1.1.8 2.5-.8 1.4-1.6Z" fill="#e6e6e6"/>
  <path d="m155.5 14.2-4.7 17.4a1 1 0 0 0 1.1 1.2l19.6-3.1c1.4-.2 1.2-2.3-.1-2.1l-19.6 3.1 1 1.3 4.8-17.4c.3-1.4-1.8-1.7-2.1-.4ZM166.2 247a48.5 48.5 0 0 0 28.7 9.3 47.8 47.8 0 0 0 39.4-21.5c.7-1.1-1-2.5-1.7-1.4a46.3 46.3 0 0 1-21.7 17.7 45.7 45.7 0 0 1-43.4-5.8c-1-.8-2.4.8-1.3 1.6Z" fill="#e6e6e6"/>
  <path d="m246 242.1 4.7-17.4a1 1 0 0 0-1-1.2l-19.7 3.1c-1.3.2-1.1 2.3.2 2.1l19.6-3.1-1.1-1.3-4.7 17.4c-.4 1.3 1.7 1.7 2 .4Z" fill="#e6e6e6"/>
  <path d="M412.4 50.4h-75a9 9 0 0 1 0-18.1h75a9 9 0 0 1 0 18.1Z" fill="#f2f2f2"/>
  <path d="m410.7 41.3 3.5-3.5a1 1 0 1 0-1.5-1.6l-3.6 3.6-3.6-3.6a1 1 0 1 0-1.5 1.6l3.6 3.5L404 45a1 1 0 1 0 1.6 1.5L409 43l3.6 3.5a1 1 0 0 0 1.5-1.5Z" fill="#fff"/>
  <path d="M293.4 325.3a1 1 0 0 1-.7-.3l-5.7-6a1 1 0 0 1 0-1.4l5.7-5.8a1 1 0 1 1 1.4 1.4l-5 5.1 5 5.2a1 1 0 0 1-.7 1.7Zm9.6 0a1 1 0 0 1-.7-1.7l5-5.2-5-5.1a1 1 0 0 1 1.4-1.4l5.7 5.8a1 1 0 0 1 0 1.4l-5.7 5.9a1 1 0 0 1-.7.3Z" fill="#3f3d56"/>
  <path d="M322.2 220a10.7 10.7 0 0 1 15.4-5.5l94.3-24.7 1.6 19.4-92.3 20.6a10.7 10.7 0 0 1-19-9.7Z" fill="#a0616a"/>
  <path d="M464.4 185.9a20.3 20.3 0 0 0-20.5-8.4l-34.7 6.7s12 40 27 39.1A55 55 0 0 0 458 215a20.3 20.3 0 0 0 6.5-29.1Z" fill="#3f3d56"/>
  <path fill="#a0616a" d="m429.7 594.2-9.2-.1-4.1-36.3 13.6.1-.3 36.3z"/>
  <path d="m433.8 612.8-1.7-22.9-2.4-.1-9.8-.7-3.1-.2v6.6l-14.7 10a4.1 4.1 0 0 0 1 7.3 3.9 3.9 0 0 0 1.2.1l18.3.2.2-.3 3-6.2 1.1 6.2v.3h7Z" fill="#2f2e41"/>
  <path fill="#a0616a" d="m526.5 587.5-8.8 2.7-14.9-33.4 13-4 10.7 34.7z"/>
  <path d="m527.5 582.7-2.3.6-9.6 2.3-3 .7 1.9 6.3-11 14a4.1 4.1 0 0 0 3.2 6.6 4.2 4.2 0 0 0 1.2-.2l.8-.2 16.7-5.2 1.1-7.1 3 5.9 6.7-2ZM411.2 289.1l-17.5 51-.6 4c-4.4 4.3 1.1 5.7-1 6.8s-3.4 4.2-.6 4.7 11.8 199.4 23.7 207.1 19.2 13.3 17 2c-.8-4.5.4-29 2.2-56.5.2-3.1 3.4-6.4.6-9.4s.4-5 .6-7.6c2.5-36 5.4-71.5 5.4-71.5s18.6 63.9 23.4 59 3 7.2 4.4 10.8c1.2 3-4 9 3.7 9.1s25.9 62.2 27.7 62.1c3.7-.1 14 .3 20-1 3-.6-10.3-47.6-21.5-88.2-.8-3.2-5.7-3.3-2.6-9.5s-12.4-46.7-11-48.6c3.5-5 4.8-7.1 1.4-7.4s-4.5 1.6-4.7-3.3l-.8-16.6s-2.5-47-20.2-73l-1.5-15.3Z" fill="#2f2e41"/>
  <path d="M412 290.2c-15.2 2.2-40 15.7-22.8-14l18.2-45.3c-13.3-10.4-2.1-29.5 9-48.6l26-25.9h22.5l5.9 22.7a67.6 67.6 0 0 1 2.6 50.4c-3.7 10.8 5.4 34.1 3.6 35.9-4 3.8-11-.8-4 6.5s8.4 9.7 5.7 12.5-8.7 11.8-8.7 11.8l-9.2 17Z" fill="#3f3d56"/>
  <circle cx="749.3" cy="269.6" r="25.7" transform="rotate(-21.3 219.9 997)" fill="#a0616a"/>
  <path d="M484.2 160.5a41 41 0 0 1 6.8 16.7 17.3 17.3 0 0 1-9.4 2.8c0-.5-.2-1-.3-1.3a37.5 37.5 0 0 0-4.3-9.6 22.6 22.6 0 0 1-1.3 9.4 16.6 16.6 0 0 0-5.6-1.4 10.1 10.1 0 0 0-4.5 1l-4.2-14c0 9-13.2 16.9-27.5 15.7-.5-.3 4.6-15 4.1-15.4l-3.3-2.4c4.7-7.2 9.8-15 8.9-16.2 0 1.5-5.1 8.4-10.7 15-3.1-2.3 14.6-39.5 5.8-42.5-.1 1.3-2 1.3-4.4 1a24 24 0 0 0-2.7-6 14.4 14.4 0 0 1-.7 5.6 33 33 0 0 0-6.9.7 22.1 22.1 0 0 0-1.7-2.3 14 14 0 0 1-.1 2.7c-2.3.5-4.2 1-4.5 1.6-1.8-.7 1.3-3.7.1-5.3-2.9-3.8 1.4-9.5 4.1-13.5 5.6-8.2 17.8-11 26.4-6.2.4-1.3 2.4-2.2 5-2.8a13.4 13.4 0 0 1 3.2-.3c11 .2 26.3 9.3 27 20.3l.1 3.6c.8 12.3-.1 23.6 8.3 32.6 3 3.3 3 18.7 1.9 26.6-3-3.2-5.2-15.6-9.6-16Z" fill="#2f2e41"/>
  <path d="M546.5 597.8a2.3 2.3 0 0 0 1.7-4l-.2-.5v-.2a6 6 0 0 1 11.3 0c1.9 4.5 4.2 9 4.8 13.6a18 18 0 0 1-.3 6.2 72.3 72.3 0 0 0 6.5-30 69.8 69.8 0 0 0-.4-7.8q-.3-3.2-1-6.3a73.1 73.1 0 0 0-14.5-31 19.5 19.5 0 0 1-8-8.4 14.8 14.8 0 0 1-1.4-4c.4 0 1.5-6 1.2-6.4.5-.8 1.5-1.2 2.1-2 3-4 7-3.4 9.2 2.1 4.6 2.3 4.7 6.2 1.8 9.9-1.7 2.3-2 5.5-3.6 8l.5.6a73.6 73.6 0 0 1 7.7 12.2 30.6 30.6 0 0 1 1.8-14.2c1.8-4.2 5-7.8 8-11.4a6.3 6.3 0 0 1 11.1 3v.2l-1.2.8a3 3 0 0 0 1.2 5.6h.1a30.6 30.6 0 0 1-.8 4.6c3.7 14.3-4.3 19.5-15.7 19.7l-.8.4a75.1 75.1 0 0 1 4 19 71.2 71.2 0 0 1 0 11.5v-.1a18.8 18.8 0 0 1 6.5-10.9c5-4 12-5.5 17.2-8.8a3.5 3.5 0 0 1 5.5 3.4v.2a20.7 20.7 0 0 0-2.4 1.1l-1.2.8a3 3 0 0 0 1.2 5.6h.2a30.7 30.7 0 0 1-5.6 8.8c-2.4 12.5-12.3 13.7-23 10a75 75 0 0 1-5 14.8h-18l-.2-.6a20.5 20.5 0 0 0 5-.3l-4-5a1.1 1.1 0 0 1-.1 0l-2-2.5a30 30 0 0 1 .8-7.7Z" fill="#f2f2f2"/>
  <path d="M345 614a1.2 1.2 0 0 0 1.2 1.1h253.3a1.2 1.2 0 1 0 0-2.3H346.2a1.2 1.2 0 0 0-1.2 1.2Z" fill="#ccc"/>
  <path fill="#f2f2f2" d="m465.7 357.2-52.4 48.7-68.4-21.1L329 315l52.4-48.6 68.4 21 15.9 69.8z"/>
  <path d="M378.5 321a10.7 10.7 0 0 1 5.8-15.2l42.4-87.9 15.8 11.5-44.3 83.6a10.7 10.7 0 0 1-19.7 8Z" fill="#a0616a"/>
  <path d="M444.8 190.7a20.3 20.3 0 0 0-19.7 10.2l-17.4 30.7s38.2 16.9 47.3 4.8a55 55 0 0 0 7.7-21.9 20.3 20.3 0 0 0-18-23.8Z" fill="#3f3d56"/>
  <path d="M336.1 179.3v86.4a8.9 8.9 0 0 1-8.8 8.8H261l.6-.8a186 186 0 0 0 73.8-93.4Z" fill="#228be6"/>
  <path fill="#f2f2f2" d="M56.6 242.5 38.5 274h36.3l-18.2-31.5L38.5 274h36.3l-18.2-31.5z"/>
  <circle cx="194.3" cy="330.6" r="60.3" fill="#f2f2f2"/>
</svg>